<svg width="32" height="32" viewBox="0 0 100 100" fill="none" xmlns="http://www.w3.org/2000/svg">
  <path d="M50 8C25 8 5 25 5 46c0 11 5 21 14 28l-6 18 18-9c6 2 12 3 19 3 25 0 45-17 45-40S75 8 50 8z" fill="none" stroke="#5BA3E6" stroke-width="5"/>
  <circle cx="50" cy="44" r="26" stroke="#5BA3E6" stroke-width="4" fill="none"/>
  <circle cx="50" cy="44" r="14" stroke="#5BA3E6" stroke-width="4" fill="none"/>
  <line x1="50" y1="14" x2="50" y2="26" stroke="#5BA3E6" stroke-width="4"/>
  <line x1="50" y1="62" x2="50" y2="74" stroke="#5BA3E6" stroke-width="4"/>
  <line x1="20" y1="44" x2="32" y2="44" stroke="#5BA3E6" stroke-width="4"/>
  <line x1="68" y1="44" x2="80" y2="44" stroke="#5BA3E6" stroke-width="4"/>
  <path d="M50 36 L52 43 L50 52 L48 43 Z" fill="#5BA3E6"/>
  <path d="M42 44 L49 41 L58 44 L49 47 Z" fill="#5BA3E6"/>
  <line x1="50" y1="44" x2="78" y2="16" stroke="#5BA3E6" stroke-width="4" stroke-linecap="round"/>
  <circle cx="78" cy="16" r="5" fill="#5BA3E6"/>
  <line x1="78" y1="4" x2="78" y2="9" stroke="#5BA3E6" stroke-width="3" stroke-linecap="round"/>
  <line x1="88" y1="10" x2="84" y2="13" stroke="#5BA3E6" stroke-width="3" stroke-linecap="round"/>
  <line x1="91" y1="20" x2="86" y2="18" stroke="#5BA3E6" stroke-width="3" stroke-linecap="round"/>
</svg>
